<svg xmlns="http://www.w3.org/2000/svg" xmlns:xlink="http://www.w3.org/1999/xlink" version="1.1" id="Layer_1" x="0px" y="0px" viewBox="0 0 780 440" xml:space="preserve"> <rect fill="#A193F2" width="780" height="440"></rect> <g> <line fill="none" stroke="#162020" stroke-width="2" stroke-linecap="round" stroke-linejoin="round" x1="390" y1="178.2743" x2="390" y2="178.2743"></line> <line fill="none" stroke="#162020" stroke-width="2" stroke-linecap="round" stroke-linejoin="round" stroke-dasharray="0,9.5258" x1="390" y1="187.8001" x2="390" y2="249.7174"></line> <line fill="none" stroke="#162020" stroke-width="2" stroke-linecap="round" stroke-linejoin="round" x1="390" y1="254.4804" x2="390" y2="254.4804"></line> </g> <g> <path fill="#C44EB9" stroke="#000000" stroke-width="0.9578" stroke-miterlimit="10" d="M573.6138,386.7366H206.1805 c-7.8788,0-17.0807-6.091-18.1101-13.1145l-1.9222-14.2745h407.4978l-2.8832,12.3513 C588.4329,380.0061,581.4926,386.7366,573.6138,386.7366z"></path> <path fill="#EDADF2" stroke="#162020" stroke-width="0.9215" stroke-miterlimit="10" d="M576.4438,371.7169H202.6204 c-11.5591,0-18.3553-9.6507-16.2326-20.0962l11.3601-46.4433c1.6329-8.0355,7.3405-13.8605,16.2326-13.8605h352.3211 c8.6724,0,14.2546,5.5471,16.1161,13.3338l11.1034,46.4433C596.0536,361.6868,588.2416,371.7169,576.4438,371.7169z"></path> <polygon fill="#FFFFFF" stroke="#162020" stroke-width="0.9012" stroke-linecap="round" stroke-miterlimit="10" points=" 550.3388,303.1248 228.7291,303.1248 216.4223,361.459 563.5777,361.459 "></polygon> <path fill="#F4C4F7" stroke="#162020" stroke-width="0.9215" stroke-miterlimit="10" d="M191.3366,350.5615l-4.7816,0.1217 l9.7166-41.3703l3.8378-0.0977c3.2001-0.0815,5.6364,2.6161,4.9608,5.4928l-7.2605,30.9129 C197.1471,348.4418,194.4745,350.4817,191.3366,350.5615z"></path> <path fill="#F4C4F7" stroke="#162020" stroke-width="0.9215" stroke-miterlimit="10" d="M532.8392,382.0196h-20.3776 c-1.5864,0-2.8725-1.286-2.8725-2.8725l0,0c0-1.5864,1.2861-2.8725,2.8725-2.8725h20.3776c1.5864,0,2.8725,1.286,2.8725,2.8725l0,0 C535.7117,380.7336,534.4257,382.0196,532.8392,382.0196z"></path> <path fill="#F4C4F7" stroke="#162020" stroke-width="1.0678" stroke-miterlimit="10" d="M478.9609,382.0196h-29.3324 c-1.5864,0-2.8725-1.286-2.8725-2.8725l0,0c0-1.5864,1.286-2.8725,2.8725-2.8725h29.3324c1.5864,0,2.8725,1.286,2.8725,2.8725l0,0 C481.8333,380.7336,480.5473,382.0196,478.9609,382.0196z"></path> <path fill="#F4C4F7" stroke="#162020" stroke-width="0.9215" stroke-miterlimit="10" d="M563.7973,382.0196h-20.3776 c-1.5864,0-2.8725-1.286-2.8725-2.8725l0,0c0-1.5864,1.2861-2.8725,2.8725-2.8725h20.3776c1.5864,0,2.8724,1.286,2.8724,2.8725l0,0 C566.6697,380.7336,565.3837,382.0196,563.7973,382.0196z"></path> <line fill="none" stroke="#162020" stroke-width="0.9215" stroke-linecap="round" stroke-miterlimit="10" x1="565.9756" y1="314.2884" x2="572.7032" y2="342.5609"></line> </g> <rect x="312.6006" y="105.6886" transform="matrix(0.7071 -0.7071 0.7071 0.7071 15.2733 255.7448)" fill="none" stroke="#002138" stroke-width="0.8517" stroke-linecap="round" stroke-linejoin="round" stroke-miterlimit="4" width="7.4945" height="7.4945"></rect> <circle fill="none" stroke="#002138" stroke-width="0.8696" stroke-linecap="round" stroke-linejoin="round" cx="258.3956" cy="82.8113" r="4.2612"></circle> <g> <line fill="none" stroke="#002138" stroke-width="0.8696" stroke-linecap="round" stroke-linejoin="round" x1="300.5506" y1="60.4477" x2="300.5506" y2="70.1876"></line> <line fill="none" stroke="#002138" stroke-width="0.8696" stroke-linecap="round" stroke-linejoin="round" x1="295.6806" y1="65.3176" x2="305.4205" y2="65.3176"></line> </g> <g> <circle fill="#FFFFFF" stroke="#000000" stroke-width="0.8368" stroke-miterlimit="10.0002" cx="390" cy="100.6982" r="34.4385"></circle> <g> <path fill="#AC44A8" stroke="#162020" stroke-width="0.8689" stroke-miterlimit="10" d="M388.6757,116.2663 c-1.1125,0-2.1579-0.5325-2.8121-1.4332l-11.8864-16.3646c-1.1281-1.5528-0.7836-3.7264,0.7696-4.8545 c1.5529-1.1286,3.7264-0.7841,4.8546,0.7696l9.0362,12.4401l27.4555-38.8388c1.1074-1.5673,3.2771-1.9402,4.8443-0.8316 c1.5681,1.1078,1.9398,3.2767,0.8324,4.8443L391.514,114.797c-0.6474,0.9152-1.6954,1.462-2.8159,1.4693 C388.6905,116.2663,388.6829,116.2663,388.6757,116.2663z"></path> </g> </g> <ellipse fill="#FF76AE" stroke="#000000" stroke-width="0.8495" stroke-miterlimit="10.0002" cx="261.8394" cy="320.0739" rx="15.3818" ry="8.8559"></ellipse> <g> <line fill="none" stroke="#162020" stroke-width="2.1756" stroke-linecap="round" stroke-linejoin="round" x1="261.8394" y1="223.2675" x2="261.8394" y2="223.2675"></line> <line fill="none" stroke="#162020" stroke-width="2.1756" stroke-linecap="round" stroke-linejoin="round" stroke-dasharray="0,10.2247" x1="261.8394" y1="234.88" x2="261.8394" y2="310.3604"></line> <line fill="none" stroke="#162020" stroke-width="2.1756" stroke-linecap="round" stroke-linejoin="round" x1="261.8394" y1="316.1665" x2="261.8394" y2="316.1665"></line> </g> <g> <circle fill="#FF76AE" stroke="#000000" stroke-width="0.8495" stroke-miterlimit="10.0002" cx="262.8394" cy="176.2484" r="59.3845"></circle> <g> <path fill="#FFFFFF" stroke="#162020" stroke-width="0.9578" stroke-linecap="round" stroke-miterlimit="10" d=" M247.7493,146.1602h30.1803c8.3159,0,15.0434,6.7275,15.0434,15.0434v30.5074c0,8.3159-6.7275,15.0434-15.0434,15.0434h-30.1803 c-8.3159,0-15.0434-6.7275-15.0434-15.0434v-30.5074C232.6592,152.9344,239.4334,146.1602,247.7493,146.1602z"></path> <line fill="#FFFFFF" stroke="#162020" stroke-width="0.9578" stroke-linecap="round" stroke-miterlimit="10" x1="233.1264" y1="163.6797" x2="292.5059" y2="163.6797"></line> <line fill="#FFFFFF" stroke="#162020" stroke-width="0.9481" stroke-linecap="round" stroke-miterlimit="10" x1="246.8617" y1="146.2498" x2="257.1398" y2="163.6797"></line> <line fill="#FFFFFF" stroke="#162020" stroke-width="0.9481" stroke-linecap="round" stroke-miterlimit="10" x1="266.3901" y1="146.105" x2="276.7617" y2="163.6797"></line> <path fill="#C44EB9" stroke="#000000" stroke-width="0.9578" stroke-miterlimit="10" d="M271.4825,182.2737l-14.0156-9.2503 c-0.7942-0.5139-1.8687-0.327-2.3827,0.5139c-0.1869,0.2803-0.2803,0.6073-0.2803,0.9344v17.3327 c0,0.9344,0.7942,1.7286,1.7286,1.7286c0.3271,0,0.6074-0.0934,0.8877-0.2336l14.0156-8.4094 c0.7475-0.4205,0.9811-1.3548,0.5139-2.1024C271.8562,182.5541,271.6693,182.3672,271.4825,182.2737z"></path> </g> </g> <g> <ellipse fill="#FF7F6E" stroke="#000000" stroke-width="0.8495" stroke-miterlimit="10.0002" cx="516.0474" cy="320.6421" rx="15.6991" ry="9.0386"></ellipse> </g> <ellipse fill="#FFBC00" stroke="#000000" stroke-width="0.9578" stroke-miterlimit="10.0002" cx="390" cy="335.6153" rx="15.8957" ry="9.1518"></ellipse> <g> <line fill="none" stroke="#162020" stroke-width="1.9503" stroke-linecap="round" stroke-linejoin="round" x1="390.0844" y1="256.3465" x2="390.0844" y2="256.3465"></line> <line fill="none" stroke="#162020" stroke-width="1.9503" stroke-linecap="round" stroke-linejoin="round" stroke-dasharray="0,9.2891" x1="390.0633" y1="265.8038" x2="389.9262" y2="327.2765"></line> <line fill="none" stroke="#162020" stroke-width="1.9503" stroke-linecap="round" stroke-linejoin="round" x1="389.9156" y1="332.0052" x2="389.9156" y2="332.0052"></line> </g> <circle fill="#FFBC00" stroke="#000000" stroke-width="0.9578" stroke-miterlimit="10.0002" cx="390" cy="216.6732" r="59.3845"></circle> <g> <path fill="#FFFFFF" stroke="#162020" stroke-width="0.9578" stroke-linecap="round" stroke-miterlimit="10" d="M420.4602,229.5179 l-1.1009-22.3864l0,0c-0.3669-5.8719-5.1379-10.2757-11.0097-10.2757h-4.037c-0.734-7.3398-6.6058-12.4776-14.3127-12.4776 c-7.3398,0-13.5787,5.8719-14.3127,12.4776h-4.0368c-5.8718,0-10.6428,4.4039-11.0097,10.2757l-1.1009,22.3864 c-0.3669,5.1378,1.468,10.2757,5.1379,13.5786c3.303,3.6699,8.4407,5.8719,13.5787,5.8719h23.4875 c5.138,0,9.9088-1.835,13.5787-5.8719C418.9922,239.4266,420.8271,234.6557,420.4602,229.5179z M390.367,190.6169 c3.6699,0,6.6058,2.5689,7.3398,6.2388h-14.3127C383.7612,193.5529,386.6971,190.6169,390.367,190.6169z"></path> <g> <g> <path fill="#C44EB9" stroke="#000000" stroke-width="0.9578" stroke-miterlimit="10" d="M404.3126,196.8557 c-0.734-7.3398-6.6058-12.4776-14.3127-12.4776c-7.3398,0-13.5787,5.8719-14.3127,12.4776H404.3126z M390.367,190.6169 c3.6699,0,6.6058,2.5689,7.3398,6.2388h-14.3127C383.7612,193.5529,386.6971,190.6169,390.367,190.6169z"></path> </g> </g> <g> <g> <path fill="#FFFFFF" stroke="#162020" stroke-width="0.9992" stroke-linecap="round" stroke-miterlimit="10" d=" M402.4312,210.9285c-1.107,5.9041-6.2731,10.3322-12.5463,10.3322s-11.0702-4.4281-12.5463-10.3322"></path> </g> </g> </g> <rect x="454.8857" y="104.691" transform="matrix(0.7071 -0.7071 0.7071 0.7071 57.6531 356.0634)" fill="none" stroke="#002138" stroke-width="0.8517" stroke-linecap="round" stroke-linejoin="round" stroke-miterlimit="4" width="7.4945" height="7.4945"></rect> <circle fill="none" stroke="#002138" stroke-width="0.8696" stroke-linecap="round" stroke-linejoin="round" cx="523.2361" cy="82.8113" r="4.2612"></circle> <g> <line fill="none" stroke="#002138" stroke-width="0.8696" stroke-linecap="round" stroke-linejoin="round" x1="481.0812" y1="70.1876" x2="481.0812" y2="60.4477"></line> <line fill="none" stroke="#002138" stroke-width="0.8696" stroke-linecap="round" stroke-linejoin="round" x1="476.2113" y1="65.3176" x2="485.9511" y2="65.3176"></line> </g> <g> <line fill="none" stroke="#162020" stroke-width="2.1756" stroke-linecap="round" stroke-linejoin="round" x1="516.2309" y1="223.2675" x2="516.2309" y2="223.2675"></line> <line fill="none" stroke="#162020" stroke-width="2.1756" stroke-linecap="round" stroke-linejoin="round" stroke-dasharray="0,10.2247" x1="516.2309" y1="234.88" x2="516.2309" y2="310.3604"></line> <line fill="none" stroke="#162020" stroke-width="2.1756" stroke-linecap="round" stroke-linejoin="round" x1="516.2309" y1="316.1665" x2="516.2309" y2="316.1665"></line> </g> <g> <circle fill="#FF7F6E" stroke="#000000" stroke-width="0.8495" stroke-miterlimit="10.0002" cx="517.1606" cy="176.8462" r="59.3845"></circle> <circle fill="#C44EB9" stroke="#000000" stroke-width="0.9578" stroke-miterlimit="10" cx="517.1606" cy="176.8462" r="32.7386"></circle> <circle fill="#FFFFFF" stroke="#162020" stroke-width="0.9578" stroke-linecap="round" stroke-miterlimit="10" cx="517.1606" cy="176.8462" r="28.18"></circle> <g> <line fill="none" stroke="#000000" stroke-width="1.1492" stroke-linecap="round" stroke-linejoin="round" stroke-miterlimit="10" x1="517.1606" y1="164.9897" x2="517.1606" y2="188.7026"></line> <line fill="none" stroke="#000000" stroke-width="1.1492" stroke-linecap="round" stroke-linejoin="round" stroke-miterlimit="10" x1="529.017" y1="176.8462" x2="505.3042" y2="176.8462"></line> </g> </g> </svg>